<svg xmlns="http://www.w3.org/2000/svg" xmlns:xlink="http://www.w3.org/1999/xlink" width="82" height="85" version="1.1" viewBox="0 0 82 85"><title>迭代</title><desc>Created with Sketch.</desc><defs><polygon id="path-1" points="51.102 26.12 .611 26.12 9.753 58.741 41.599 58.741"/></defs><g id="Page-1" fill="none" fill-rule="evenodd" stroke="none" stroke-width="1"><g id="产品-洞察-研发大盘" transform="translate(-174.000000, -242.000000)"><g id="详情简介" transform="translate(175.000000, 243.000000)"><g id="迭代"><path id="Shape" fill="#FFF" stroke="#404040" stroke-width="1.151" d="M49.9410831,80.3812557 L49.9338505,80.3957991 C49.4637316,81.8646804 48.1184686,82.8536301 46.585158,82.8536301 L13.1560941,82.8536301 C11.6300162,82.8536301 10.2485901,81.8355936 9.80740168,80.3812557 L9.80740168,80.373984 C9.7784713,80.2794521 7.32662087,71.4443493 4.91093344,62.6892352 C0,44.917226 0,44.7936073 0,44.6918037 L0,25.9744749 C0,24.0111187 1.59840396,22.411347 3.55843778,22.411347 L56.5589094,22.411347 C58.5189432,22.411347 60.1173472,24.0111187 60.1173472,25.9672032 L60.1607428,45.2589954 L49.9410831,80.3812557 Z" transform="translate(30.080371, 52.632489) scale(1, -1) translate(-30.080371, -52.632489)"/><polygon id="Path" fill="#FFF" stroke="#404040" stroke-width="1.151" points="55.546 78.331 55.546 64.296 4.571 64.296 4.571 78.331"/><g id="Group-4" transform="translate(4.198270, 0.000000)"><g id="Path-4"><ellipse id="Oval-6" cx="28.079" cy="71.294" fill="#404040" rx="1.49" ry="1.486"/><ellipse id="Oval-6" cx="22.481" cy="71.294" fill="#404040" rx="1.49" ry="1.486"/><ellipse id="Oval-6" cx="15.484" cy="71.294" fill="#404040" rx="1.49" ry="1.486"/><ellipse id="Oval-6" cx="8.487" cy="71.294" fill="#404040" rx="1.49" ry="1.486"/><g id="Group" stroke-width="1.151" transform="translate(13.994234, 0.000000)"><path id="Path-2" stroke="#979797" d="M8.39654065,44.6772603 L16.7930813,27.9232877"/><polyline id="Path-3" stroke="#0F0E0E" points="40.583 41.885 54.578 26.527 55.977 5.585"/><path id="Path-5" stroke="#979797" d="M16.7930813,27.9232877 L39.1838564,43.2810959"/><ellipse id="Oval-8" cx="5.598" cy="48.866" fill="#FFF" stroke="#404040" rx="5.598" ry="5.585"/><ellipse id="Oval-8" cx="40.583" cy="43.281" fill="#56A7F7" stroke="#404040" rx="5.598" ry="5.585"/><ellipse id="Oval-8" cx="54.578" cy="26.527" fill="#D9D9D9" stroke="#404040" rx="4.198" ry="4.188"/><ellipse id="Oval-8" cx="55.977" cy="5.585" fill="#56A7F7" stroke="#404040" rx="5.598" ry="5.585"/></g><mask id="mask-2" fill="#fff"><use xlink:href="#path-1"/></mask><use id="Mask" fill="#404040" fill-opacity=".1" transform="translate(25.856787, 42.430308) scale(1, -1) translate(-25.856787, -42.430308)" xlink:href="#path-1"/></g></g><polygon id="Path" stroke="#404040" stroke-width="1.151" points="55.3 26.12 4.81 26.12 13.952 58.741 45.797 58.741" transform="translate(30.055057, 42.430308) scale(1, -1) translate(-30.055057, -42.430308)"/><ellipse id="Oval-8" cx="36.385" cy="29.319" fill="#FFF" stroke="#404040" stroke-width="1.151" rx="6.997" ry="6.981"/><ellipse id="Oval-7" cx="40.583" cy="71.204" fill="#FFF" stroke="#404040" stroke-width="1.151" rx="2.799" ry="2.792"/><ellipse id="Oval-7" cx="48.98" cy="71.204" fill="#56A7F7" stroke="#404040" stroke-width="1.151" rx="2.799" ry="2.792"/></g></g></g></g></svg>